<svg width="644" height="322" viewBox="0 0 644 322" fill="none" xmlns="http://www.w3.org/2000/svg">
<rect width="644" height="322" fill="#00133A"/>
<path d="M527 143C578.782 133.205 594 143 644 167.87V322H0V0C40.4193 21.5531 61.1756 39.7752 103.5 55.1901C171.847 80.0826 223.434 33.6506 285.583 75.8864C339.703 112.665 347.914 144.059 409.5 154.5C464.569 163.836 472.062 153.392 527 143Z" fill="#F7BA00"/>
<path d="M115 195C74.2298 201.309 33.4525 230.353 0 207.542V321.999H644V65.0001C612.5 53 572 85.0004 556 97.0004C505.637 134.773 466.642 119.533 404.372 130.064C332.24 142.263 321.525 121.203 254 147.999C194.444 171.633 178.782 185.129 115 195Z" fill="#003854"/>
<path d="M533.5 177C594.199 179.831 644 220.5 644 220.5V321.5H0V240.322C0 240.322 49.9182 250.045 83.2246 248.908C150.901 246.596 162.434 205.561 229.5 201C318.574 194.943 330.656 197.71 420.5 201C468.759 202.768 485.347 174.754 533.5 177Z" fill="#02B59D"/>
</svg>
