<svg width="512" height="512" viewBox="0 0 512 512" fill="none" xmlns="http://www.w3.org/2000/svg">
<path d="M34.148 342.934H209.25C223.08 342.934 234.293 354.146 234.293 367.977C234.293 381.807 223.081 393.02 209.25 393.02H60.66" fill="#8CFFC8"/>
<path d="M209.25 407.687H60.66C52.561 407.687 45.994 401.121 45.994 393.021C45.994 384.921 52.562 378.355 60.66 378.355H209.249C214.97 378.355 219.625 373.7 219.625 367.979C219.625 362.258 214.97 357.601 209.249 357.601H34.148C26.049 357.601 19.482 351.035 19.482 342.935C19.482 334.835 26.05 328.269 34.148 328.269H209.25C231.147 328.269 248.959 346.083 248.959 367.978C248.959 389.873 231.147 407.687 209.25 407.687Z" fill="#0234E8"/>
<path d="M18.955 234.413H125.772C139.602 234.413 150.815 245.625 150.815 259.456C150.815 273.286 139.603 284.499 125.772 284.499H19.672" fill="#8CFFC8"/>
<path d="M125.772 299.165H19.672C11.573 299.165 5.006 292.599 5.006 284.499C5.006 276.399 11.574 269.833 19.672 269.833H125.772C131.493 269.833 136.148 265.178 136.148 259.457C136.148 253.736 131.493 249.081 125.772 249.081H18.955C10.856 249.081 4.289 242.515 4.289 234.415C4.289 226.315 10.857 219.749 18.955 219.749H125.772C147.669 219.749 165.481 237.563 165.481 259.458C165.481 281.353 147.669 299.165 125.772 299.165Z" fill="#0234E8"/>
<path d="M56.035 125.892H209.25C223.08 125.892 234.293 137.104 234.293 150.935C234.293 164.765 223.081 175.978 209.25 175.978H31.593" fill="#8CFFC8"/>
<path d="M209.25 190.645H31.593C23.494 190.645 16.927 184.079 16.927 175.979C16.927 167.879 23.495 161.313 31.593 161.313H209.25C214.971 161.313 219.626 156.658 219.626 150.935C219.626 145.212 214.971 140.559 209.25 140.559H56.035C47.936 140.559 41.369 133.993 41.369 125.893C41.369 117.793 47.937 111.227 56.035 111.227H209.25C231.147 111.227 248.959 129.041 248.959 150.936C248.959 172.831 231.147 190.645 209.25 190.645Z" fill="#0234E8"/>
<path d="M451.173 393.021H386.226C372.396 393.021 361.183 381.809 361.183 367.978C361.183 354.148 372.395 342.935 386.226 342.935H477.851" fill="#8CFFC8"/>
<path d="M451.173 407.687H386.228C364.331 407.687 346.519 389.873 346.519 367.978C346.519 346.081 364.333 328.268 386.228 328.268H477.853C485.952 328.268 492.519 334.834 492.519 342.934C492.519 351.034 485.951 357.6 477.853 357.6H386.228C380.507 357.6 375.852 362.255 375.852 367.976C375.852 373.697 380.507 378.354 386.228 378.354H451.173C459.272 378.354 465.839 384.92 465.839 393.02C465.839 401.121 459.272 407.687 451.173 407.687Z" fill="#0234E8"/>
<path d="M480.406 175.979H386.226C372.396 175.979 361.183 164.767 361.183 150.936C361.183 137.106 372.395 125.893 386.226 125.893H455.963" fill="#8CFFC8"/>
<path d="M480.407 190.645H386.227C364.33 190.645 346.518 172.831 346.518 150.935C346.518 129.04 364.332 111.226 386.227 111.226H455.964C464.063 111.226 470.63 117.792 470.63 125.892C470.63 133.992 464.062 140.558 455.964 140.558H386.227C380.506 140.558 375.851 145.213 375.851 150.934C375.851 156.655 380.506 161.312 386.227 161.312H480.407C488.506 161.312 495.073 167.878 495.073 175.978C495.073 184.078 488.506 190.645 480.407 190.645Z" fill="#0234E8"/>
<path d="M492.327 284.5H302.75C288.92 284.5 277.707 273.288 277.707 259.457C277.707 245.627 288.919 234.414 302.75 234.414H493.045" fill="#8CFFC8"/>
<path d="M492.328 299.165H302.75C280.853 299.165 263.041 281.351 263.041 259.456C263.041 237.561 280.855 219.747 302.75 219.747H493.045C501.144 219.747 507.711 226.313 507.711 234.413C507.711 242.513 501.143 249.079 493.045 249.079H302.75C297.029 249.079 292.374 253.734 292.374 259.455C292.374 265.176 297.029 269.831 302.75 269.831H492.328C500.427 269.831 506.994 276.397 506.994 284.497C506.994 292.599 500.427 299.165 492.328 299.165Z" fill="#0234E8"/>
<path d="M256 512.001C171.902 512.001 93.119 470.639 45.257 401.359C33.826 384.829 24.362 366.949 17.13 348.22C9.427 328.298 4.259 307.432 1.769 286.21C0.595 276.249 0 266.084 0 256.001C0 248.317 0.339 240.616 1.009 233.111C2.891 211.911 7.404 191.05 14.423 171.111C20.951 152.524 29.674 134.646 40.349 117.982C87.732 44.102 168.348 0.000976562 256 0.000976562C343.652 0.000976562 424.266 44.103 471.646 117.974C482.325 134.645 491.048 152.523 497.58 171.119C504.595 191.049 509.108 211.91 510.992 233.116C511.661 240.615 512.001 248.316 512.001 256.001C512.001 266.084 511.406 276.251 510.232 286.216C507.743 307.432 502.573 328.297 494.869 348.224C487.639 366.948 478.174 384.828 466.741 401.363C462.133 408.026 452.997 409.692 446.336 405.085C439.673 400.478 438.007 391.343 442.614 384.68C452.732 370.046 461.108 354.223 467.51 337.651C474.325 320.021 478.898 301.565 481.101 282.792C482.142 273.954 482.669 264.943 482.669 256.001C482.669 249.184 482.368 242.358 481.777 235.718C480.108 216.941 476.117 198.482 469.911 180.848C464.128 164.382 456.405 148.557 446.954 133.803C404.998 68.39 333.612 29.333 256 29.333C178.388 29.333 107.002 68.39 65.044 133.81C55.599 148.557 47.876 164.382 42.096 180.839C35.888 198.481 31.896 216.939 30.228 235.711C29.634 242.358 29.333 249.182 29.333 256C29.333 264.941 29.86 273.953 30.901 282.784C33.104 301.564 37.675 320.02 44.491 337.646C50.893 354.223 59.269 370.045 69.388 384.679C111.778 446.038 181.538 482.667 256 482.667C284.529 482.667 312.336 477.44 338.647 467.131C346.191 464.173 354.698 467.895 357.653 475.436C360.608 482.977 356.889 491.487 349.349 494.442C319.614 506.093 288.207 512.001 256 512.001Z" fill="#0234E8"/>
</svg>
