<svg width="128" height="128" viewBox="0 0 128 128" fill="none" xmlns="http://www.w3.org/2000/svg">
<rect width="128" height="128" rx="40" fill="white"/>
<path d="M63.9275 86.4169L63.5523 86.2502C52.1702 81.5806 44.9156 70.6153 45.0407 58.3576C45.1657 46.0999 52.6705 35.3014 64.136 30.882L64.5112 30.7152L64.8865 30.882C76.2687 35.5516 83.5232 46.5168 83.3981 58.7745C83.2731 71.0322 75.7683 81.8307 64.3028 86.2502L63.9275 86.4169ZM64.4696 33.0083C54.0046 37.2193 47.2087 47.1839 47.1253 58.441C47.0002 69.6981 53.5877 79.7461 63.9692 84.2072C74.4342 79.9962 81.2301 70.0316 81.3552 58.7745C81.3969 47.5174 74.8094 37.4278 64.4696 33.0083Z" fill="#011833"/>
<path d="M64.1776 97.5489C63.5939 97.5489 63.1353 97.0902 63.1353 96.5065V55.6892C63.1353 55.1055 63.5939 54.6469 64.1776 54.6469C64.7613 54.6469 65.2199 55.1055 65.2199 55.6892V96.5065C65.2199 97.0485 64.7613 97.5489 64.1776 97.5489Z" fill="#011833"/>
</svg>
